<svg width="28" height="28" viewBox="0 0 28 28" fill="none" xmlns="http://www.w3.org/2000/svg">
<circle cx="14" cy="14" r="14" fill="white"/>
<path d="M27.628 15.2188H18.6162L18.7511 14.7155H27.7624" fill="#D7000F"/>
<path d="M27.355 16.2254H18.3428L18.4775 15.7223H27.4894" fill="#D7000F"/>
<path d="M27.0852 17.2346H18.0723L18.2082 16.7311H27.2206" fill="#D7000F"/>
<path d="M8.20022 10.3064C8.24503 10.1348 8.23643 10.0102 8.172 9.93167C8.10803 9.85273 7.98958 9.81356 7.81199 9.81356C7.62112 9.81356 7.47672 9.84955 7.37986 9.92154C7.28329 9.99352 7.21056 10.1221 7.15971 10.3064L6.85115 11.5941H3.7992L3.93002 10.9759C4.17958 10.0386 4.63616 9.37454 5.29809 8.98407C5.95867 8.59496 6.93761 8.40002 8.23462 8.40002C9.44668 8.40002 10.301 8.59088 10.7994 8.97303C11.2956 9.35518 11.4411 9.93167 11.2344 10.7054C10.9923 11.6083 9.93494 12.7899 8.0602 14.2503C7.6952 14.5387 7.41954 14.7583 7.23395 14.9068C6.56055 15.4423 5.9134 16.012 5.66459 16.353C5.45758 16.6364 5.36494 16.8502 5.36494 16.8502L9.6125 16.8511L9.14144 18.6142H1.86621L2.30559 16.9685C2.41453 16.5597 2.63512 16.1544 2.96631 15.7508C3.29811 15.347 3.89954 14.8011 4.76864 14.1115C4.96479 13.958 5.24438 13.7413 5.60801 13.4606C7.08005 12.3155 7.87581 11.523 7.99245 11.0852" fill="#D7000F"/>
<path d="M13.1487 18.6119L13.786 16.2251H9.36328L9.76584 14.7145L14.1765 8.61255H18.3654L16.8688 14.2097L14.3446 14.2122L15.7314 10.2168H15.4349L12.4854 14.7136L18.215 14.7145L17.8119 16.2251H16.3301L15.6913 18.6119" fill="#D7000F"/>
<path d="M18.8838 14.2101L20.3807 8.61255H23.1007L22.3827 11.2993H22.4255C22.7036 11.0172 23.0167 10.8097 23.3675 10.6755C23.7186 10.5421 24.1133 10.4758 24.556 10.4758C25.15 10.4758 25.5674 10.5897 25.8022 10.8187C26.0386 11.0482 26.0958 11.3899 25.9751 11.8442L25.3432 14.2101H22.599L23.0757 12.4255C23.1258 12.2411 23.1217 12.1165 23.065 12.0507C23.0088 11.9854 22.8887 11.9526 22.7054 11.9526C22.5357 11.9526 22.4002 11.9907 22.2986 12.0672C22.1971 12.1448 22.1248 12.264 22.0812 12.4255L21.6039 14.2101" fill="#D7000F"/>
</svg>
