<svg width="305" height="18" viewBox="0 0 305 18" fill="none" xmlns="http://www.w3.org/2000/svg">
<path d="M3.936 7.208H12.064C10.4 5.992 8.864 4.536 7.936 3.24C7.024 4.536 5.6 5.976 3.936 7.208ZM8.944 12.392V14.296H14.864V16.008H1.248V14.296H6.96V12.392H2.528V10.728H6.96V8.888H3.344V7.624C2.768 8.024 2.176 8.392 1.568 8.728C1.328 8.28 0.8 7.592 0.368 7.192C3.104 5.816 5.68 3.352 6.864 1.4H8.832C10.544 3.832 13.152 5.928 15.68 7C15.184 7.512 14.768 8.12 14.416 8.712C13.84 8.392 13.264 8.04 12.688 7.64V8.888H8.944V10.728H13.424V12.392H8.944ZM27.28 11.144H20.624V13.912H27.28V11.144ZM18.672 16.376V9.336H29.328V16.36H27.28V15.736H20.624V16.376H18.672ZM25.632 4.168L27.12 3.048C28.704 4.344 30.608 6.184 31.424 7.56L29.776 8.824C29.536 8.392 29.184 7.896 28.752 7.368C24.528 7.592 20.064 7.768 17.088 7.88L16.976 5.96C17.712 5.944 18.544 5.912 19.44 5.896C20.336 4.504 21.248 2.744 21.792 1.336L23.984 2.04C23.312 3.304 22.512 4.648 21.744 5.816C23.472 5.752 25.328 5.672 27.168 5.592C26.656 5.08 26.128 4.6 25.632 4.168ZM42.928 1.72V2.632H40.144V1.72H42.928ZM36.144 3.256L34.992 4.68C34.544 4.152 33.552 3.416 32.752 2.936L33.84 1.64C34.624 2.072 35.664 2.744 36.144 3.256ZM35.84 7.336L34.72 8.792C34.256 8.296 33.216 7.592 32.416 7.16L33.456 5.832C34.272 6.216 35.312 6.84 35.84 7.336ZM34.464 16.2L32.784 15.256C33.36 14.008 34.176 11.992 34.768 10.12L36.272 11.08C35.76 12.792 35.104 14.648 34.464 16.2ZM41.92 8.52V7.816H41.12V8.52H41.92ZM37.376 9.512V7.32C37.184 8.04 36.896 8.824 36.592 9.352C36.352 9.208 35.872 8.968 35.584 8.856C35.952 8.28 36.176 7.512 36.32 6.792L37.376 7.032V6.408C36.864 6.456 36.368 6.488 35.92 6.52L35.792 5.368L36.768 5.336C36.912 5.16 37.072 4.968 37.216 4.776C36.864 4.392 36.384 3.96 35.952 3.64L36.544 2.712C36.624 2.76 36.72 2.824 36.8 2.872C37.072 2.392 37.344 1.816 37.52 1.384L38.592 1.928C38.256 2.472 37.904 3.032 37.6 3.496C37.712 3.608 37.84 3.704 37.936 3.816C38.192 3.432 38.432 3.08 38.608 2.76L39.568 3.304V3.032H43.392V3.304L43.808 2.744L44.016 2.904C44.288 2.408 44.576 1.832 44.752 1.432L45.84 1.96C45.472 2.504 45.104 3.096 44.768 3.56C44.896 3.672 45.008 3.8 45.104 3.912C45.424 3.48 45.712 3.064 45.92 2.696L46.976 3.288C46.448 3.944 45.84 4.68 45.264 5.304L46.144 5.288C46.064 5.112 45.984 4.936 45.904 4.776L46.816 4.408C47.136 4.984 47.44 5.768 47.552 6.296L46.592 6.712C46.576 6.6 46.544 6.472 46.512 6.328L45.888 6.376V9.512H44.672V7.32C44.496 8.04 44.208 8.808 43.936 9.32C43.744 9.176 43.36 8.968 43.072 8.84V9.368H40.016V6.968H43.072V8.552C43.328 8.024 43.504 7.384 43.632 6.792L44.672 7.032V6.44L43.296 6.52L43.184 5.368L43.936 5.352C44.064 5.208 44.208 5.032 44.352 4.872C44.112 4.552 43.76 4.168 43.392 3.848V4.024H39.568V3.448C39.104 4.056 38.592 4.712 38.096 5.272L38.784 5.256C38.736 5.112 38.688 4.968 38.64 4.84L39.44 4.552C39.712 5.128 39.936 5.896 40 6.392L39.136 6.712C39.12 6.584 39.104 6.44 39.072 6.28L38.576 6.328V9.512H37.376ZM45.936 7.08L46.896 6.792C47.168 7.432 47.472 8.264 47.6 8.808L46.592 9.144C46.496 8.584 46.208 7.736 45.936 7.08ZM40.032 6.536V5.672H43.072V6.536H40.032ZM43.072 4.44V5.304H40.032V4.44H43.072ZM39.968 8.536L39.008 8.808C38.944 8.344 38.784 7.624 38.624 7.064L39.536 6.856C39.712 7.384 39.888 8.088 39.968 8.536ZM38.848 12.936H46.848C46.848 12.936 46.816 13.4 46.752 13.624C46.496 14.904 46.208 15.608 45.776 15.96C45.376 16.264 44.928 16.344 44.288 16.376C43.776 16.392 42.8 16.376 41.808 16.344C41.776 15.928 41.568 15.352 41.296 14.952C42.256 15.048 43.312 15.064 43.712 15.064C44.032 15.064 44.224 15.048 44.384 14.936C44.56 14.808 44.704 14.552 44.848 14.104H38.544C38.496 14.264 38.448 14.424 38.4 14.568L36.688 14.344C36.976 13.528 37.28 12.344 37.472 11.352H44.304V10.856H36.992V9.784H46.064V12.44H38.976L38.848 12.936ZM53.22 12.36H59.24V15H48.66V12.9L54.06 7.8C55.3 6.62 55.52 5.9 55.52 5.22C55.52 4.12 54.76 3.48 53.28 3.48C52.08 3.48 51.06 3.94 50.38 4.88L48.02 3.36C49.1 1.78 51.06 0.76 53.58 0.76C56.7 0.76 58.78 2.36 58.78 4.9C58.78 6.26 58.4 7.5 56.44 9.32L53.22 12.36ZM73.2016 9.42V12.06H70.9216V15H67.7616V12.06H60.2216V9.88L66.8216 0.999999H70.2216L64.1016 9.42H67.8616V6.8H70.9216V9.42H73.2016ZM80.4146 1.672H82.4786V14.008C82.4786 15.176 82.2066 15.704 81.5026 16.008C80.7506 16.312 79.6626 16.376 78.1106 16.376C77.9986 15.816 77.6466 14.92 77.3586 14.392C78.3986 14.44 79.5826 14.44 79.9346 14.424C80.2866 14.424 80.4146 14.312 80.4146 14.008V1.672ZM84.2226 5.848L86.0946 5.144C87.3906 7.416 88.7026 10.312 89.1026 12.312L87.0226 13.128C86.7026 11.192 85.4866 8.184 84.2226 5.848ZM76.2226 5.32L78.3986 5.688C77.8546 8.072 76.9906 11.048 75.6626 12.808C75.1826 12.488 74.3026 12.04 73.8066 11.816C75.0866 10.2 75.8866 7.4 76.2226 5.32ZM93.6626 4.12H92.1906V6.936H93.6626V4.12ZM92.1906 11.608H93.6626V8.6H92.1906V11.608ZM95.4386 2.424V13.304H92.1906V14.712H90.4306V2.424H95.4386ZM96.3826 11.96L97.9026 11.08C98.6386 11.864 99.5026 12.92 99.8386 13.704L98.2066 14.648C97.9186 13.912 97.1026 12.776 96.3826 11.96ZM104.847 7.864H103.199V9.24H104.735V10.888H103.199V14.376C103.199 15.288 103.023 15.768 102.399 16.056C101.775 16.328 100.911 16.376 99.7266 16.376C99.6626 15.848 99.3746 15.096 99.1186 14.584C99.8866 14.616 100.783 14.616 101.023 14.616C101.279 14.616 101.359 14.552 101.359 14.328V10.888H95.7426V9.24H101.359V7.864H95.7106V6.2H99.3266V4.792H96.2546V3.128H99.3266V1.448H101.199V3.128H104.399V4.792H101.199V6.2H104.847V7.864ZM111.103 13.56L114.223 13.192L114.287 14.968C111.439 15.368 108.383 15.736 106.223 16.024L105.919 14.136C106.847 14.04 107.983 13.928 109.215 13.784V11.72H106.559V10.024H109.215V8.472H111.103V10.024H113.711V11.72H111.103V13.56ZM110.959 5.176L112.367 4.44C113.247 5.512 114.271 6.984 114.671 7.976L113.167 8.84C113.071 8.584 112.943 8.312 112.783 8.008C110.415 8.136 107.951 8.248 106.175 8.328L106.063 6.552L107.455 6.52C107.727 5.768 107.999 4.904 108.191 4.136H106.095V2.456H114.207V4.136H110.319C110.015 4.92 109.679 5.736 109.343 6.472C110.143 6.456 110.991 6.424 111.839 6.392C111.551 5.96 111.247 5.544 110.959 5.176ZM116.623 3.384V12.392H114.799V3.384H116.623ZM118.431 1.896H120.303V14.12C120.303 15.192 120.079 15.736 119.439 16.024C118.815 16.328 117.775 16.392 116.415 16.392C116.335 15.848 116.063 15 115.791 14.44C116.751 14.488 117.727 14.488 118.047 14.488C118.335 14.472 118.431 14.392 118.431 14.12V1.896ZM134.287 6.728H131.343C129.215 6.728 128.687 6.248 128.687 4.632V1.56H130.527V2.888C131.983 2.616 133.423 2.264 134.367 1.88L135.743 3.128C134.255 3.656 132.303 4.056 130.527 4.296V4.632C130.527 5.112 130.671 5.192 131.535 5.192H134.111C134.751 5.192 134.879 5.016 134.943 4.072C135.311 4.328 136.079 4.584 136.543 4.648C136.367 6.296 135.823 6.728 134.287 6.728ZM124.815 6.808V4.856C124.239 5.256 123.647 5.608 123.087 5.912C122.783 5.544 122.143 4.84 121.743 4.552C123.471 3.8 125.247 2.616 126.271 1.32L127.999 1.976C127.615 2.472 127.151 2.952 126.639 3.416V6.808H124.815ZM125.999 11.864V12.568H132.927V11.864H125.999ZM125.999 10.104V10.792H132.927V10.104H125.999ZM125.999 8.344V9.032H132.927V8.344H125.999ZM134.863 13.704H132.095C133.727 14.28 135.567 15.048 136.655 15.576L134.447 16.424C133.535 15.896 131.903 15.144 130.287 14.536L131.727 13.704H127.055L128.511 14.344C127.183 15.208 125.135 15.992 123.519 16.44C123.183 16.072 122.511 15.384 122.111 15.048C123.663 14.76 125.407 14.248 126.511 13.704H124.159V7.208H134.863V13.704ZM153.783 11.288H155.847V10.456H154.311C154.135 10.776 153.959 11.048 153.783 11.288ZM157.559 14.056H155.847V12.568H152.279V11.288H153.735C153.415 11.08 152.791 10.824 152.423 10.68C152.983 10.04 153.415 9.128 153.655 8.248L155.095 8.568C155.031 8.776 154.967 9 154.887 9.208H155.847V8.28H157.559V9.208H160.391V10.456H157.559V11.288H160.967V12.568H157.559V14.056ZM153.047 7.944V6.968H155.399V7.944H153.047ZM153.063 5.528H155.383V6.488H153.063V5.528ZM157.559 5.256V8.056H155.847V5.256H157.559ZM158.007 7.944V6.968H160.503V7.944H158.007ZM158.007 5.528H160.471V6.488H158.007V5.528ZM150.695 3.448L149.351 4.696C148.871 4.12 147.831 3.256 146.951 2.712L148.199 1.56C149.095 2.072 150.167 2.872 150.695 3.448ZM150.167 6.584L148.871 7.864C148.375 7.304 147.271 6.456 146.391 5.944L147.607 4.76C148.503 5.24 149.639 5.992 150.167 6.584ZM158.775 3.096H152.663V3.816H158.775V3.096ZM149.943 12.664V12.792C150.615 13.848 151.815 14.296 153.495 14.376C155.399 14.456 159.095 14.408 161.239 14.232C161.031 14.664 160.743 15.544 160.663 16.056C158.727 16.152 155.415 16.184 153.495 16.12C151.511 16.04 150.167 15.576 149.159 14.328C148.503 14.968 147.831 15.576 147.015 16.264L146.119 14.376C146.743 13.992 147.479 13.464 148.135 12.92V10.44H146.343V8.68H149.943V12.12C150.887 10.216 150.983 7.704 150.983 5.864V1.88H160.551V5.016H152.663V5.88C152.663 8.104 152.439 11.352 151.175 13.464C150.919 13.224 150.343 12.856 149.943 12.664ZM167.415 13.56L170.535 13.192L170.599 14.968C167.751 15.368 164.695 15.736 162.535 16.024L162.231 14.136C163.159 14.04 164.295 13.928 165.527 13.784V11.72H162.871V10.024H165.527V8.472H167.415V10.024H170.023V11.72H167.415V13.56ZM167.271 5.176L168.679 4.44C169.559 5.512 170.583 6.984 170.983 7.976L169.479 8.84C169.383 8.584 169.255 8.312 169.095 8.008C166.727 8.136 164.263 8.248 162.487 8.328L162.375 6.552L163.767 6.52C164.039 5.768 164.311 4.904 164.503 4.136H162.407V2.456H170.519V4.136H166.631C166.327 4.92 165.991 5.736 165.655 6.472C166.455 6.456 167.303 6.424 168.151 6.392C167.863 5.96 167.559 5.544 167.271 5.176ZM172.935 3.384V12.392H171.111V3.384H172.935ZM174.743 1.896H176.615V14.12C176.615 15.192 176.391 15.736 175.751 16.024C175.127 16.328 174.087 16.392 172.727 16.392C172.647 15.848 172.375 15 172.103 14.44C173.063 14.488 174.039 14.488 174.359 14.488C174.647 14.472 174.743 14.392 174.743 14.12V1.896ZM178.839 10.808L180.407 11.08C180.247 12.584 179.911 14.184 179.447 15.208C179.111 15 178.407 14.664 177.991 14.52C178.455 13.576 178.711 12.152 178.839 10.808ZM182.311 11.096L183.655 10.68C184.055 11.592 184.471 12.76 184.647 13.56L183.239 14.072C183.095 13.272 182.679 12.04 182.311 11.096ZM181.975 7.144L183.239 6.616C183.847 7.704 184.471 9.096 184.647 10.008L183.303 10.616C183.255 10.376 183.191 10.104 183.095 9.8L182.279 9.864V16.408H180.631V9.976L178.311 10.12L178.151 8.472L179.303 8.424C179.543 8.12 179.799 7.768 180.055 7.4C179.591 6.712 178.823 5.864 178.167 5.224L179.079 3.928C179.191 4.024 179.319 4.136 179.447 4.248C179.895 3.368 180.343 2.312 180.615 1.464L182.263 2.072C181.687 3.16 181.047 4.392 180.471 5.288C180.679 5.512 180.855 5.736 181.015 5.928C181.559 5.032 182.071 4.12 182.439 3.336L183.991 4.056C183.111 5.448 182.007 7.064 180.999 8.36L182.535 8.296C182.359 7.896 182.167 7.496 181.975 7.144ZM190.311 11.368H186.791V13.864H190.311V11.368ZM185.031 16.376V9.688H192.135V16.312H190.311V15.528H186.791V16.376H185.031ZM186.167 6.552H190.743C189.831 5.576 188.967 4.488 188.391 3.592C187.847 4.488 187.079 5.576 186.167 6.552ZM187.431 1.672H189.239C190.311 3.352 191.927 5.256 193.479 6.232C193.079 6.712 192.631 7.416 192.311 8.008C191.927 7.704 191.527 7.352 191.143 6.968V8.28H185.879V6.856C185.431 7.32 184.967 7.736 184.487 8.104C184.247 7.608 183.767 6.856 183.399 6.44C185.015 5.272 186.647 3.176 187.431 1.672ZM193.843 0.999999H199.883V15H196.643V3.6H193.843V0.999999ZM208.315 15.24C204.875 15.24 202.315 12.62 202.315 8C202.315 3.38 204.875 0.76 208.315 0.76C211.775 0.76 214.315 3.38 214.315 8C214.315 12.62 211.775 15.24 208.315 15.24ZM208.315 12.5C209.935 12.5 211.055 11.18 211.055 8C211.055 4.82 209.935 3.5 208.315 3.5C206.715 3.5 205.595 4.82 205.595 8C205.595 11.18 206.715 12.5 208.315 12.5ZM221.889 15.24C218.449 15.24 215.889 12.62 215.889 8C215.889 3.38 218.449 0.76 221.889 0.76C225.349 0.76 227.889 3.38 227.889 8C227.889 12.62 225.349 15.24 221.889 15.24ZM221.889 12.5C223.509 12.5 224.629 11.18 224.629 8C224.629 4.82 223.509 3.5 221.889 3.5C220.289 3.5 219.169 4.82 219.169 8C219.169 11.18 220.289 12.5 221.889 12.5ZM233.084 11.438C233.084 10.7273 233.145 10.034 233.266 9.358C233.396 8.682 233.595 8.03633 233.864 7.421C234.133 6.80567 234.471 6.238 234.878 5.718H235.931C235.558 6.25533 235.242 6.836 234.982 7.46C234.731 8.084 234.54 8.72967 234.41 9.397C234.28 10.0643 234.215 10.7403 234.215 11.425C234.215 12.0923 234.28 12.7553 234.41 13.414C234.54 14.0727 234.731 14.7053 234.982 15.312C235.233 15.9273 235.545 16.508 235.918 17.054H234.878C234.471 16.5427 234.133 15.9837 233.864 15.377C233.595 14.779 233.396 14.1463 233.266 13.479C233.145 12.8117 233.084 12.1313 233.084 11.438ZM239.352 4.171L240.249 4.418C239.963 5.289 239.612 6.16 239.209 6.992V15.988H238.312V8.669C237.922 9.306 237.519 9.891 237.09 10.398C236.999 10.164 236.739 9.657 236.583 9.423C237.701 8.136 238.728 6.16 239.352 4.171ZM243.577 8.331H241.809C241.666 8.812 241.497 9.28 241.315 9.735C241.887 10.112 242.537 10.606 242.953 11.009C243.226 10.216 243.434 9.319 243.577 8.331ZM240.301 5.653V4.782H244.994V5.653H242.407C242.303 6.251 242.186 6.862 242.043 7.486H243.837L244.006 7.46L244.565 7.629C244.058 11.828 242.628 14.584 240.639 16.027C240.522 15.806 240.21 15.429 240.015 15.286C241.081 14.545 241.965 13.414 242.615 11.906C242.212 11.477 241.549 10.918 240.951 10.502C240.704 10.983 240.405 11.412 240.08 11.802C239.95 11.607 239.677 11.295 239.495 11.139C240.639 9.774 241.198 7.538 241.471 5.653H240.301ZM245.917 5.588V13.037H245.059V5.588H245.917ZM247.425 4.327H248.309V14.779C248.309 15.377 248.179 15.663 247.789 15.819C247.425 15.975 246.788 16.001 245.761 16.001C245.709 15.754 245.592 15.325 245.449 15.065C246.229 15.091 246.918 15.078 247.126 15.078C247.347 15.065 247.425 15 247.425 14.779V4.327ZM255.342 7.005H252.807C252.508 7.655 252.196 8.266 251.845 8.812C252.69 9.306 253.652 9.956 254.276 10.515C254.731 9.488 255.095 8.318 255.342 7.005ZM259.047 4.132V10.099C259.97 10.97 261.023 11.685 262.05 12.153C261.829 12.335 261.53 12.712 261.361 12.972C260.581 12.569 259.788 12.01 259.047 11.36V15.962H258.059V10.411C257.318 9.618 256.642 8.747 256.122 7.863C255.173 11.958 253.223 14.545 250.753 15.923C250.584 15.702 250.22 15.351 249.986 15.208C251.533 14.402 252.859 13.141 253.834 11.386C253.236 10.814 252.248 10.086 251.351 9.54C251.078 9.904 250.792 10.242 250.493 10.541C250.337 10.372 249.921 10.06 249.7 9.917C251.13 8.591 252.209 6.446 252.807 4.119L253.756 4.314C253.587 4.925 253.392 5.536 253.171 6.108H255.615L255.797 6.056L256.421 6.29C256.369 6.667 256.291 7.031 256.226 7.382L256.733 7.187C257.084 7.837 257.539 8.474 258.059 9.085V4.132H259.047ZM266.769 5.757V6.225C267.458 8.981 268.563 11.23 270.37 12.829C271.501 11.815 272.385 10.502 272.918 8.851H270.578C270.513 9.085 270.448 9.306 270.383 9.514L269.408 9.384C269.72 8.279 270.084 6.823 270.331 5.757H266.769ZM273.477 7.889L274.127 8.175C273.568 10.463 272.515 12.179 271.15 13.44C272.177 14.181 273.412 14.727 274.868 15.078C274.66 15.273 274.361 15.702 274.205 15.975C272.658 15.572 271.384 14.948 270.318 14.129C269.148 14.987 267.796 15.598 266.353 16.001C266.236 15.754 265.989 15.351 265.807 15.156C267.159 14.831 268.446 14.272 269.564 13.479C268.303 12.27 267.38 10.723 266.691 8.89C266.47 11.1 265.768 13.622 263.493 15.754C263.363 15.507 263.025 15.13 262.804 14.948C265.573 12.374 265.794 9.15 265.794 6.849V5.757H263.506V4.821H270.63L270.799 4.769L271.54 4.899C271.358 5.783 271.098 6.888 270.812 7.941H273.308L273.477 7.889ZM280.185 4.574V5.354H276.493V4.574H280.185ZM280.653 6.277V7.07H275.843V6.277H280.653ZM280.211 8.032V8.799H276.441V8.032H280.211ZM276.441 10.528V9.748H280.211V10.528H276.441ZM282.278 8.487V10.554H285.957V8.487H282.278ZM279.392 14.467V12.283H277.273V14.467H279.392ZM285.801 15.052H286.659C286.945 15.052 286.997 14.844 287.036 13.349C287.218 13.518 287.595 13.674 287.842 13.739C287.777 15.481 287.53 15.91 286.75 15.91H285.671C284.774 15.91 284.566 15.637 284.566 14.688V11.399H283.409C283.24 13.622 282.707 15.13 280.575 15.988C280.471 15.78 280.198 15.416 280.003 15.247H277.273V15.845H276.428V11.49H280.224V15.156C281.953 14.441 282.33 13.206 282.473 11.399H281.394V8.24C281.264 8.396 281.121 8.539 280.978 8.669C280.809 8.5 280.471 8.253 280.25 8.136C280.991 7.46 281.641 6.394 281.927 5.523L282.863 5.757C282.629 6.381 282.278 7.044 281.862 7.642H286.425C285.944 6.992 285.515 6.212 285.19 5.419H282.525V4.522H285.84C286.269 5.809 287.114 7.109 287.907 7.837C287.673 7.98 287.296 8.253 287.114 8.461C287.049 8.396 286.971 8.318 286.906 8.24V11.399H285.476V14.688C285.476 15 285.515 15.052 285.801 15.052ZM292.717 5.796H290.286V8.253H292.717V5.796ZM290.286 11.724H292.717V9.137H290.286V11.724ZM293.614 12.621H290.286V13.817H289.376V4.925H293.614V12.621ZM295.668 10.97H299.373V8.695H295.746V9.28C295.746 9.813 295.733 10.385 295.668 10.97ZM299.373 5.588H295.746V7.811H299.373V5.588ZM300.309 4.678V14.714C300.309 15.325 300.179 15.624 299.763 15.793C299.347 15.936 298.632 15.962 297.527 15.962C297.475 15.702 297.319 15.273 297.163 15.026C298.008 15.052 298.827 15.039 299.035 15.039C299.282 15.026 299.373 14.948 299.373 14.714V11.854H295.538C295.252 13.401 294.589 14.948 293.12 16.079C292.964 15.871 292.6 15.546 292.405 15.416C294.589 13.739 294.81 11.295 294.81 9.28V4.678H300.309ZM304.508 11.438C304.508 12.1313 304.443 12.8117 304.313 13.479C304.192 14.1463 303.997 14.779 303.728 15.377C303.468 15.9837 303.13 16.5427 302.714 17.054H301.674C302.047 16.508 302.359 15.9273 302.61 15.312C302.861 14.7053 303.052 14.0727 303.182 13.414C303.312 12.7553 303.377 12.0923 303.377 11.425C303.377 10.7403 303.312 10.0643 303.182 9.397C303.052 8.72967 302.861 8.084 302.61 7.46C302.359 6.836 302.042 6.25533 301.661 5.718H302.714C303.13 6.238 303.468 6.80567 303.728 7.421C303.997 8.03633 304.192 8.682 304.313 9.358C304.443 10.034 304.508 10.7273 304.508 11.438Z" fill="white"/>
</svg>
