<svg width="39" height="38" viewBox="0 0 39 38" fill="none" xmlns="http://www.w3.org/2000/svg">
<path d="M12.4428 26.1255C12.7149 26.3977 13.0714 26.5337 13.4279 26.5337C13.7845 26.5337 14.1411 26.3976 14.4131 26.1255L19.5347 21.0039L24.6563 26.1255C24.9283 26.3977 25.2849 26.5337 25.6415 26.5337C25.998 26.5337 26.3545 26.3976 26.6266 26.1255C27.1707 25.5816 27.1707 24.6994 26.6266 24.1553L21.5049 19.0337L26.6265 13.912C27.1706 13.368 27.1706 12.4858 26.6265 11.9418C26.0825 11.3977 25.2003 11.3977 24.6563 11.9418L19.5346 17.0634L14.413 11.9418C13.8689 11.3977 12.9867 11.3977 12.4427 11.9418C11.8986 12.4858 11.8986 13.368 12.4427 13.912L17.5644 19.0337L12.4427 24.1553C11.8987 24.6994 11.8987 25.5816 12.4428 26.1255Z" fill="white"/>
<path d="M6.06496 32.435C7.80902 34.179 9.84061 35.5485 12.1035 36.5056C14.4477 37.4971 16.9362 37.9998 19.5 37.9998C22.0636 37.9998 24.5522 37.4971 26.8965 36.5056C29.1593 35.5485 31.1909 34.1789 32.935 32.435C34.679 30.6909 36.0487 28.6593 37.0057 26.3964C37.9972 24.0521 38.5 21.5636 38.5 19C38.5 16.4362 37.9972 13.9477 37.0057 11.6035C36.0487 9.34061 34.679 7.30902 32.935 5.56496C31.1909 3.82091 29.1593 2.45134 26.8965 1.49427C24.5521 0.502686 22.0636 0 19.5 0C16.9362 0 14.4477 0.502751 12.1035 1.49427C9.84061 2.45134 7.80902 3.82097 6.06496 5.56496C4.32091 7.30896 2.95134 9.34061 1.9942 11.6034C1.00275 13.9477 0.5 16.4362 0.5 19C0.5 21.5636 1.00275 24.0521 1.99427 26.3964C2.95134 28.6593 4.32097 30.6909 6.06496 32.435ZM19.5 2.77371C28.4615 2.77371 35.7262 10.0384 35.7262 19C35.7262 27.9614 28.4615 35.2261 19.5 35.2261C10.5384 35.2261 3.27371 27.9614 3.27371 19C3.27371 10.0384 10.5384 2.77371 19.5 2.77371Z" fill="white"/>
</svg>
