<?xml version="1.0" encoding="utf-8"?>
<!-- Generator: $$$/GeneralStr/196=Adobe Illustrator 27.6.0, SVG Export Plug-In . SVG Version: 6.00 Build 0)  -->
<svg version="1.1" id="圖層_1" xmlns="http://www.w3.org/2000/svg" xmlns:xlink="http://www.w3.org/1999/xlink" x="0px" y="0px"
	 viewBox="0 0 30 48.4" style="enable-background:new 0 0 30 48.4;" xml:space="preserve">
<style type="text/css">
	.st0{fill:#422F27;}
</style>
<g>
	<g>
		<path shape-rendering="crispEdges" class="st0" d="M15.1,5.2L4.3,15.4L7,17.9l6.3-5.9v16.5H17V11.9l6.3,5.9l2.7-2.5L15.1,5.2
			L15.1,5.2z M25.9,1H4.3v3.5h21.6C25.9,4.5,25.9,1,25.9,1z"/>
	</g>
	<path class="st0" d="M4,47.2v-8.9H1v-1.4h7.7v1.4h-3v8.9C5.7,47.2,4,47.2,4,47.2z M14.7,47.4c-2.6,0-4.5-2.1-4.5-5.4
		c0-3.3,1.8-5.3,4.5-5.3s4.5,2,4.5,5.3C19.2,45.4,17.3,47.4,14.7,47.4z M14.7,46c1.7,0,2.8-1.5,2.8-4c0-2.4-1.1-3.9-2.8-3.9
		s-2.8,1.5-2.8,3.9C11.9,44.5,13,46,14.7,46z M22,47.2V36.9h3.1c2.3,0,3.9,0.8,3.9,3.1s-1.6,3.3-3.9,3.3h-1.6v3.9H22z M23.6,42H25
		c1.7,0,2.4-0.6,2.4-2s-0.9-1.8-2.5-1.8h-1.3V42z"/>
</g>
</svg>
