<svg width="28" height="28" viewBox="0 0 28 28" fill="none" xmlns="http://www.w3.org/2000/svg">
<path d="M12.0716 14.1842C12.1052 14.2171 12.1318 14.2564 12.1498 14.2998C12.1678 14.3431 12.177 14.3897 12.1766 14.4366C12.1781 14.4845 12.17 14.5321 12.1527 14.5768C12.1354 14.6214 12.1093 14.6621 12.076 14.6965C12.0426 14.7308 12.0027 14.7582 11.9586 14.7768C11.9145 14.7955 11.8671 14.8051 11.8193 14.805H10.388C10.2902 14.805 10.1965 14.7662 10.1274 14.6971C10.0583 14.628 10.0195 14.5343 10.0195 14.4366V11.7269C10.026 11.6363 10.0666 11.5515 10.1331 11.4897C10.1996 11.4278 10.287 11.3934 10.3778 11.3934C10.4686 11.3934 10.5561 11.4278 10.6226 11.4897C10.689 11.5515 10.7296 11.6363 10.7361 11.7269V14.0719H11.8101C11.859 14.0716 11.9076 14.0814 11.9526 14.1007C11.9976 14.1201 12.0381 14.1485 12.0716 14.1842Z" fill="white"/>
<path d="M12.9522 11.3694H12.7956C12.641 11.3694 12.5156 11.4948 12.5156 11.6494V14.5084C12.5156 14.663 12.641 14.7884 12.7956 14.7884H12.9522C13.1068 14.7884 13.2322 14.663 13.2322 14.5084V11.6494C13.2322 11.4948 13.1068 11.3694 12.9522 11.3694Z" fill="white"/>
<path d="M16.5606 11.7268V14.4163C16.5606 14.514 16.5218 14.6077 16.4527 14.6768C16.3836 14.7459 16.2899 14.7847 16.1922 14.7847C16.1012 14.7848 16.0139 14.749 15.9491 14.6852C15.9362 14.6852 15.4554 14.0515 15.0464 13.5229L14.4754 12.786V14.4255C14.4771 14.4734 14.4691 14.5212 14.4519 14.5659C14.4347 14.6107 14.4087 14.6515 14.3753 14.6859C14.3419 14.7203 14.3019 14.7477 14.2577 14.7662C14.2135 14.7848 14.166 14.7942 14.118 14.7939C14.0288 14.7928 13.9431 14.7594 13.8767 14.7C13.8394 14.6666 13.8096 14.6257 13.7893 14.58C13.7689 14.5343 13.7586 14.4847 13.7588 14.4347V11.7415C13.7586 11.6475 13.7944 11.557 13.8588 11.4885C13.9232 11.4201 14.0113 11.3788 14.1051 11.3731C14.1576 11.372 14.2098 11.3821 14.2581 11.4027C14.3063 11.4234 14.3497 11.4541 14.3851 11.4929C14.3998 11.5113 15.1404 12.4729 15.5567 13.0181C15.7225 13.2318 15.8367 13.3865 15.8367 13.3865V11.7286C15.8367 11.6339 15.8743 11.543 15.9414 11.4759C16.0084 11.4089 16.0993 11.3713 16.1941 11.3713C16.2888 11.3713 16.3797 11.4089 16.4468 11.4759C16.5138 11.543 16.5514 11.6339 16.5514 11.7286L16.5606 11.7268Z" fill="white"/>
<path d="M17.8154 12.0861V12.7216H18.8875C18.9354 12.7199 18.9832 12.7278 19.0279 12.7451C19.0727 12.7623 19.1135 12.7883 19.1479 12.8217C19.1823 12.8551 19.2097 12.8951 19.2282 12.9393C19.2468 12.9835 19.2562 13.031 19.2559 13.079C19.2559 13.1269 19.2463 13.1743 19.2277 13.2183C19.209 13.2624 19.1817 13.3023 19.1474 13.3357C19.113 13.369 19.0723 13.3951 19.0276 13.4124C18.983 13.4297 18.9353 13.4378 18.8875 13.4364H17.8154V14.0719H18.8875C18.9826 14.0728 19.0737 14.1104 19.1417 14.1769C19.1923 14.2269 19.2268 14.2908 19.2409 14.3605C19.2549 14.4303 19.2478 14.5026 19.2205 14.5683C19.1932 14.6339 19.147 14.69 19.0876 14.7292C19.0283 14.7684 18.9586 14.7891 18.8875 14.7885H17.4562C17.4083 14.7885 17.3609 14.7789 17.3168 14.7602C17.2727 14.7416 17.2328 14.7143 17.1995 14.6799C17.1662 14.6455 17.1401 14.6048 17.1228 14.5602C17.1055 14.5156 17.0973 14.4679 17.0988 14.42V11.7269C17.1016 11.633 17.1401 11.5437 17.2066 11.4773C17.273 11.4108 17.3623 11.3723 17.4562 11.3695H18.8875C18.9367 11.366 18.9861 11.3726 19.0326 11.389C19.0792 11.4054 19.1218 11.4313 19.1579 11.4649C19.1941 11.4985 19.2229 11.5392 19.2425 11.5844C19.2622 11.6297 19.2724 11.6785 19.2724 11.7278C19.2724 11.7771 19.2622 11.8259 19.2425 11.8712C19.2229 11.9164 19.1941 11.9571 19.1579 11.9907C19.1218 12.0243 19.0792 12.0502 19.0326 12.0666C18.9861 12.083 18.9367 12.0896 18.8875 12.0861H17.8154Z" fill="white"/>
<path d="M14 0C11.2311 0 8.52431 0.821085 6.22202 2.35942C3.91973 3.89776 2.12532 6.08426 1.06569 8.64243C0.00606594 11.2006 -0.271181 14.0155 0.269012 16.7313C0.809205 19.447 2.14258 21.9416 4.10051 23.8995C6.05844 25.8574 8.553 27.1908 11.2687 27.731C13.9845 28.2712 16.7994 27.9939 19.3576 26.9343C21.9157 25.8747 24.1022 24.0803 25.6406 21.778C27.1789 19.4757 28 16.7689 28 14C28 10.287 26.525 6.72601 23.8995 4.1005C21.274 1.475 17.713 0 14 0ZM21 13.23C20.9904 13.3721 20.9726 13.5136 20.9466 13.6537C20.858 14.1918 20.6766 14.7103 20.4105 15.1863C20.2853 15.4129 19.6737 16.2732 19.4895 16.4997C18.4542 17.745 16.7263 19.1837 13.8232 20.5818C13.7617 20.6133 13.6929 20.6275 13.624 20.6229C13.5551 20.6183 13.4888 20.5951 13.4321 20.5558C13.3753 20.5165 13.3303 20.4625 13.3019 20.3996C13.2734 20.3367 13.2626 20.2673 13.2705 20.1987L13.4179 18.8834C13.4287 18.7826 13.3992 18.6815 13.3356 18.6024C13.2721 18.5233 13.1798 18.4727 13.0789 18.4616C12.119 18.3686 11.1834 18.1054 10.3158 17.6842C8.32448 16.695 7 14.9413 7 12.9445C7 9.87 10.1316 7.37763 14 7.37763C15.9416 7.37763 17.6971 8.00763 18.9737 9.02447C20.1582 9.97131 20.9171 11.2589 21 12.6866C21.0099 12.8676 21.0099 13.049 21 13.23Z" fill="white"/>
</svg>
